{
    "asset" : {
        "generator" : "Khronos glTF Blender I/O v1.1.46",
        "version" : "2.0"
    },
    "scene" : 0,
    "scenes" : [
        {
            "name" : "Scene",
            "nodes" : [
                0
            ]
        }
    ],
    "nodes" : [
        {
            "mesh" : 0,
            "name" : "atmosphere"
        }
    ],
    "meshes" : [
        {
            "name" : "Sphere.003",
            "primitives" : [
                {
                    "attributes" : {
                        "POSITION" : 0,
                        "NORMAL" : 1,
                        "TANGENT" : 2,
                        "TEXCOORD_0" : 3
                    },
                    "indices" : 4
                }
            ]
        }
    ],
    "accessors" : [
        {
            "bufferView" : 0,
            "componentType" : 5126,
            "count" : 1883,
            "max" : [
                1.0000005960464478,
                1,
                1.000001072883606
            ],
            "min" : [
                -1.000000238418579,
                -1,
                -1
            ],
            "type" : "VEC3"
        },
        {
            "bufferView" : 1,
            "componentType" : 5126,
            "count" : 1883,
            "type" : "VEC3"
        },
        {
            "bufferView" : 2,
            "componentType" : 5126,
            "count" : 1883,
            "type" : "VEC4"
        },
        {
            "bufferView" : 3,
            "componentType" : 5126,
            "count" : 1883,
            "type" : "VEC2"
        },
        {
            "bufferView" : 4,
            "componentType" : 5123,
            "count" : 10368,
            "type" : "SCALAR"
        }
    ],
    "bufferViews" : [
        {
            "buffer" : 0,
            "byteLength" : 22596,
            "byteOffset" : 0
        },
        {
            "buffer" : 0,
            "byteLength" : 22596,
            "byteOffset" : 22596
        },
        {
            "buffer" : 0,
            "byteLength" : 30128,
            "byteOffset" : 45192
        },
        {
            "buffer" : 0,
            "byteLength" : 15064,
            "byteOffset" : 75320
        },
        {
            "buffer" : 0,
            "byteLength" : 20736,
            "byteOffset" : 90384
        }
    ],
    "buffers" : [
        {
            "byteLength" : 111120,
            "uri" : "data:application/octet-stream;base64,"
        }
    ]
}
