{
    "asset" : {
        "generator" : "Khronos glTF Blender I/O v1.1.46",
        "version" : "2.0"
    },
    "scene" : 0,
    "scenes" : [
        {
            "name" : "Scene",
            "nodes" : [
                0
            ]
        }
    ],
    "nodes" : [
        {
            "mesh" : 0,
            "name" : "Sphere"
        }
    ],
    "meshes" : [
        {
            "name" : "Sphere.004",
            "primitives" : [
                {
                    "attributes" : {
                        "POSITION" : 0,
                        "NORMAL" : 1,
                        "TANGENT" : 2,
                        "TEXCOORD_0" : 3
                    },
                    "indices" : 4
                }
            ]
        }
    ],
    "accessors" : [
        {
            "bufferView" : 0,
            "componentType" : 5126,
            "count" : 9880,
            "max" : [
                0.998028039932251,
                1,
                1.0000025033950806
            ],
            "min" : [
                -0.9980286359786987,
                -1,
                -1
            ],
            "type" : "VEC3"
        },
        {
            "bufferView" : 1,
            "componentType" : 5126,
            "count" : 9880,
            "type" : "VEC3"
        },
        {
            "bufferView" : 2,
            "componentType" : 5126,
            "count" : 9880,
            "type" : "VEC4"
        },
        {
            "bufferView" : 3,
            "componentType" : 5126,
            "count" : 9880,
            "type" : "VEC2"
        },
        {
            "bufferView" : 4,
            "componentType" : 5123,
            "count" : 14700,
            "type" : "SCALAR"
        }
    ],
    "bufferViews" : [
        {
            "buffer" : 0,
            "byteLength" : 118560,
            "byteOffset" : 0
        },
        {
            "buffer" : 0,
            "byteLength" : 118560,
            "byteOffset" : 118560
        },
        {
            "buffer" : 0,
            "byteLength" : 158080,
            "byteOffset" : 237120
        },
        {
            "buffer" : 0,
            "byteLength" : 79040,
            "byteOffset" : 395200
        },
        {
            "buffer" : 0,
            "byteLength" : 29400,
            "byteOffset" : 474240
        }
    ],
    "buffers" : [
        {
            "byteLength" : 503640,
            "uri" : "data:application/octet-stream;base64,"
        }
    ]
}
